<svg xmlns="http://www.w3.org/2000/svg" width="891" height="323"><path d="M428 13c-8 1-13 4-16 10-2 3-2 6-2 22v19h-53l-3-6-8-8c-5-2-6-3-32-3h-27l3-3c5-4 6-8 6-16-1-7-3-10-8-14-3-2-4-2-26-2h-23l-4 10-4 10-1-4c-1-5-5-10-9-13-3-2-4-2-28-2h-24l-1 9a32111 32111 0 0 1-4 18l-1 9h-7c-9 0-15 2-21 6l-5 3-2-2-35-42a473 473 0 0 0-38 35l14 15 13 14H60l-12 26-12 26h12l12 1-13 11c-21 18-29 28-29 35 0 4 1 5 4 8 6 6 12 8 17 6h2l-9 6c-11 7-23 19-27 27-2 5-3 8-3 13 0 12 5 21 14 26 5 2 6 2 14 2 10-1 12-2 25-10 11-7 17-9 27-9 6 0 10 0 17 3 11 4 18 8 32 20 16 13 27 19 45 25 16 6 25 7 44 7 14 0 20 0 29-2l12-2c0 1-8 8-18 15-9 6-9 6-6 6 6 2 30 1 39-1 24-4 44-13 60-28l7-7v7c1 11 4 18 10 25l10 6 61 1 56-1 4-2c5-3 10-11 13-19 1-3 2-5 3-4 8 3 16 2 24-2l4-3 5 7c5 6 14 14 21 17 17 8 41 6 58-5 8-4 18-14 22-20l4-5 3 3c3 5 11 11 18 13 13 3 24-1 47-18a220 220 0 0 1 135-51c28-1 36-3 42-10 4-6 6-10 5-22 0-9 0-11-2-16-3-6-7-10-13-13-5-2-7-2-28-2-22 0-27 0-54 5h-4l7-7c7-7 7-7 13-7 16-2 27-6 32-11 2-3 2-4 2-10 0-7-1-11-5-15l-2-2 2-2c5-6 6-16 1-23-5-9-12-10-36-8l-8 1-4-4-8-5-4-2 16-1 21-1c7-1 16-6 19-10 8-10 5-32-5-40-7-6-1-6-114-6H610l-5 2-8 6-2 4-3-4c-5-9-13-15-22-15h-70l-1 9-1 8-2-3c-9-11-22-16-46-16l-22 2m9 5c-9 1-15 4-17 7-2 4-3 15-3 30v14h-22l-25 2c-6 2-10 5-13 10-2 4-2 5-2 31v29c-1 2-2 2-11 2h-11l4-13 3-14c0-2-2 1-11 13-9 14-9 14-13 14l-7-2c-2-2-4-2-13-2h-11l5-6c9-10 20-25 22-29v-9c-1-3-2-5-4-6-3-1-53-2-59 0-10 2-16 11-13 19 2 7 10 14 17 14 3 0 3 0-3 10l-5 7h-12c-12 0-13 0-16 3-6 5-7 19 0 25 2 2 2 2 16 2l15 1c0 2-8 17-11 20l-2 4-4-3c-12-7-24-3-28 9-2 8-2 10 11 32 8 14 7 13 18 7 15-9 27-20 39-35 5-6 8-10 11-11l8-5 5-3 8-7 7-6 5 13 4 11 4-17 4-17 13-8 14-9-3 13a229 229 0 0 1-89 149l-4 3h8c31-3 62-21 81-48 9-12 9-14 8-21-3-15 3-27 16-32l5-2 4-11c7-19 11-34 11-36l-4-1c-8-3-14-10-15-21s5-18 17-22c5-1 6-2 6-5 1-5 3-9 7-12 10-10 28-7 35 6l2 4h25V69h-13V55h13c14-1 18-3 21-8s3-14 0-19c-2-4-7-8-12-9s-29-2-36-1m71 6c-4 11-6 20-7 33v12h-29v20l1 20h25v22c1 27 5 56 12 77l2 6-5 8c-5 9-11 24-13 31l-2 12c0 15 9 25 20 22 5-2 12-6 14-9l2-2 3 4 11 13c20 18 41 22 63 10 19-9 31-29 31-49 0-31-24-55-49-51-13 2-24 10-29 21-3 6-3 7-3 17 0 9 0 11 2 16 6 12 17 19 30 19 7 0 11-1 15-6 4-3 5-7 5-13 0-14-13-22-25-17-2 0-3-2-1-4 3-2 12-2 17-1 9 3 13 9 13 20 0 12-7 23-15 25-7 2-16 1-23-3-10-4-16-11-21-20-3-7-3-8-4-17 0-15 2-21 20-49l11-17c4-10-3-23-12-25-5 0-14 3-21 9-3 3-5 4-6 3-2-6-3-18-4-34v-18h15c17-1 22-2 26-8 5-7 5-18 0-24-4-6-9-7-26-7h-15v-4a267 267 0 0 1 8-47l-17-1h-17l-2 6m49-4-7 6c-8 10-5 25 8 31 5 3 15 2 20-2s8-8 9-13c2-16-15-29-30-22m-312 1a9682 9682 0 0 1-33 79l9 1h10l1-5c2-6 7-10 13-12l31-2c29 0 33 0 39 5 2 2 3 3 12 3 11 0 15-2 20-8 2-3 2-4 2-9 0-8-2-13-7-17l-3-2-34-1-34-1 2-5c1-4 2-5 3-5 4 0 11-4 12-6 3-5 0-11-5-15-3-2-4-2-20-2-17 0-17 0-18 2m-67 0a356 356 0 0 0-6 27l-2 8h-12c-11 0-13 0-17 2-13 7-12 24 2 31l10 2 6 1-16 46c-5 13-10 23-18 34-10 13-13 20-14 27 0 5 0 7 2 10 11 19 26 10 45-27a451 451 0 0 0 17-37c1-1 21-2 21 0l-9 26c-1 1-2 2-6 1-22-2-30 18-15 35 7 7 20 13 33 15l4 1-3-6c-6-10-5-19 1-25 2-3 6-6 9-7 3-2 5-3 7-7l3-4c-8-5-11-9-13-16-3-13 5-24 20-27 6-1 9-4 9-9l-2-8c-3-5-7-6-27-6l-18-1 2-8 3-8h7l8-1 8-16 8-18h-11c-12 0-12 0-10-6a261 261 0 0 0 1-6c1-2 2-3 4-3l7-2c7-3 9-9 5-15l-3-4h-20l-20 1M80 36 67 47l16 21c18 23 18 23 28 22 8-1 12-6 13-17v-6l-16-20-16-21-12 10m528-5c-12 6-15 19-7 30 6 8 5 7 54 8l44 1 2 5c2 8 2 8-6 12l-15 10-8 7-21 2c-16 1-21 2-23 4-8 5-8 19 1 24l3 2 28-2 27-3 5-6c6-6 18-14 26-17 19-7 41-4 53 9l5 5 23-2 26-4c3-1 5-6 5-10 0-3-3-10-6-12-2-1-5-1-20 1l-19 1-6-5c-7-6-17-11-26-13-6-2-6-2-6-6v-3h31c33 0 37 0 43-5 6-4 7-8 7-15-1-7-4-13-9-17l-4-3-101-1H613l-5 3m-20 29-6 6-3 3 3 3c7 7 8 17 3 28l-2 7 10 14 11 13h12l-2-3c-3-4-4-12-1-18 1-4 3-5 7-7 6-4 19-6 34-7h12l8-7 14-11 6-3h-40l-45-1c-7-2-12-6-15-12l-3-6c0-3-1-2-3 1M124 88c-6 5-10 6-16 6-7 0-14-2-18-6-1-2-3-2-13-2H64l-7 18-8 18 14 1h14l-10 11-19 18c-13 12-21 19-22 22-1 6 5 10 21 11h10l-8 6c-19 13-33 27-37 36-4 11 2 24 13 27 5 2 9 1 22-7 15-9 20-10 32-11 20-1 35 5 55 22 17 15 26 20 38 26s23 9 38 10c44 2 81-20 102-63 5-9 11-24 11-26l-7 6c-15 15-34 27-51 31-5 2-11 2-19 2-11 0-11 0-17 4l-7 3-5-6-7-7c-14-3-24-7-38-15l-15-7c-9-4-10-4-12-2l-8 4c-7 4-14 4-19 2-4-2-9-8-11-14l-2-4H88l14-14c14-14 20-22 20-28s-6-14-13-16c-2-1-1-2 13-16 16-16 20-23 20-30 0-4-1-7-7-10-6-4-7-4-11 0m285 12c-5 3-8 7-9 12-1 8-1 8-7 9-12 2-17 7-16 18 1 6 3 9 12 13 5 2 6 3 7 5 3 15 7 23 15 31 9 7 21 12 33 12 16 0 29-9 38-25 7-14 3-28-10-30-6-1-12 3-18 10-7 9-11 11-16 7l-2-5c0-3 0-3 6-3 5 0 6 0 8-4 4-6 12-10 18-10 5 0 12 3 15 6 2 1 2 1 3-2l1-9c0-7-1-10-8-13-3-2-5-2-22-2l-21-1-2-6-2-8c-4-7-16-9-23-5m320 11c-10 3-16 15-13 25 4 11 15 17 26 14 9-3 14-11 14-20 0-15-13-24-27-19m-151 4 7 26-11 1-10 1 13 9 14 9 4 17 5 16 4-12c3-9 4-12 5-11a910 910 0 0 1 31 22l-13-15-13-16 4-11 3-9h-22l-10-14c-9-14-12-18-11-13m5 14 3 13-10 1-9 1 12 8c12 7 13 8 14 12l4 16 3 13 3-12 5-12 26 18-15-17-7-8 4-9 3-9-10-1h-11l-8-13-10-13 3 12m-254 2-9 13h-21l4 11 3 9-4 8-4 9 4-3a362 362 0 0 1 6-6l3-2 4 11 4 11 4-15 4-15 13-9 12-9h-10c-9 0-10 0-10-2l6-23-9 12m492-8-22 3-21 2-1 3-7 10a47 47 0 0 1-37 13c-14 0-25-4-37-12l-6-4-27 3c-29 3-30 3-33 9-3 4-2 12 0 16l5 5c4 1 5 1 25-1l21-2 11 5a111 111 0 0 0 34 11l1 9 1 8-12 5c-42 18-69 41-72 61-1 9 5 18 16 21 12 3 24-1 37-12 21-20 49-36 77-45 17-6 28-8 54-9 32-2 43-4 48-11 3-4 4-16 2-22-1-5-7-10-12-11a262 262 0 0 0-95 8l-3-10 5-4c6-4 13-11 18-18l3-3 17-2 20-3c4-4 5-12 3-17-3-5-8-7-14-6m-529 50c-3 5-2 5 1 1 4-4 5-5 2-5l-3 4m368 7-18 3 1 1c2 0 11 9 12 12l1 5c0 2-1 2-6 2-6 0-17-5-28-12l-8-5-5 12 6 4c13 5 26 22 28 34l1 4 8-5 38-24 31-19-7-2c-11-1-20-4-27-9l-8-4-19 3m-202 22c-7 4-20 4-27 1-2-1-2 1-2 30v32h-10v-64h-34v4c0 3 1 4 3 4 11 2 19 12 20 23 0 8-2 14-9 21-5 5-8 7-28 12-4 0-9 3-11 4-6 4-7 8-7 18 0 14 5 20 19 22l55 1c53-1 51 0 57-8 5-6 8-18 5-25s-12-12-21-12c-4 0-4 0-4-3s0-3-3-3c-4 0-12-4-17-9-7-9-8-18-2-28 4-6 10-12 16-13l6-2 1-3c0-5-1-5-7-2m-86 13c-7 4-10 10-11 17 0 5 0 7 2 11 8 15 30 15 37 0 4-9 2-19-4-25-6-5-17-7-24-3m85 0c-7 4-10 10-11 17 0 8 3 14 9 18 6 5 15 5 21 2 7-4 10-10 11-17 0-8-3-14-9-18-6-5-15-5-21-2" fill="#f7f5f6" fill-rule="evenodd"/><defs xmlns="http://www.w3.org/2000/svg"><linearGradient id="a" x1="0" x2="0" y1="0" y2="1"><stop offset="0%" stop-color="#9b332d"/><stop offset="100%" stop-color="#38335a"/></linearGradient></defs><path xmlns="http://www.w3.org/2000/svg" d="M434 10c-12 1-17 4-22 10l-3 4v38h-51l-1-2c-2-5-6-9-11-11-5-3-6-3-30-3h-25l2-3c7-8 6-20-1-27-5-5-9-6-33-6h-20l-4 9-4 9-1-4c-2-6-8-10-13-12a206 206 0 0 0-49 1l-4 18-2 17h-8c-9 0-13 1-19 5l-5 3-18-22-19-21-41 34 13 15 13 14-10 1h-9l-13 27-12 27h12l11 1-10 8c-20 17-31 30-31 38 0 5 7 12 14 14l4 2-6 4c-10 7-21 19-24 26-3 5-3 7-3 14 0 21 15 33 36 28 4-1 10-4 17-9l16-9c11-3 25 0 39 6l17 12 16 13c14 10 36 19 55 22 16 3 46 2 58-2 4-1-7 8-16 14-11 6-11 6 6 7 35 3 68-8 90-29 6-5 6-5 6-3l2 8c2 11 8 20 16 24 4 2 10 2 62 2h58l4-2c6-4 11-10 14-18 2-6 3-6 5-5 6 1 15 0 21-2l5-3 4 6c8 11 20 19 35 22 13 2 32-1 46-9 7-4 19-15 22-21l2-4 5 5c7 7 14 10 24 11l12-1c6-2 16-8 31-20a218 218 0 0 1 137-49c24-1 31-3 38-10 4-5 6-13 6-23 0-11-2-17-7-23-7-9-20-12-43-11a358 358 0 0 0-48 6l5-5 4-5 10-2c15-1 23-4 28-10 4-4 4-4 4-10 0-7-1-12-5-16-2-2-2-2-1-4 3-3 5-9 5-13 0-5-4-13-8-16-7-5-10-5-26-4l-15 1-5-4-5-4h10c21 0 32-3 39-10 6-6 7-10 7-22-1-10-4-17-10-22-8-7-2-7-115-7s-107 0-115 7l-5 4-1-2c-2-5-7-10-12-13l-5-2-39-1h-38v3l-2 7v5l-4-4c-11-11-31-15-59-12m-6 3c-8 1-13 4-16 10-2 3-2 6-2 22v19h-53l-3-6-8-8c-5-2-6-3-32-3h-27l3-3c5-4 6-8 6-16-1-7-3-10-8-14-3-2-4-2-26-2h-23l-4 10-4 10-1-4c-1-5-5-10-9-13-3-2-4-2-28-2h-24l-1 9a32111 32111 0 0 1-4 18l-1 9h-7c-9 0-15 2-21 6l-5 3-2-2-35-42a473 473 0 0 0-38 35l14 15 13 14H60l-12 26-12 26h12l12 1-13 11c-21 18-29 28-29 35 0 4 1 5 4 8 6 6 12 8 17 6h2l-9 6c-11 7-23 19-27 27-2 5-3 8-3 13 0 12 5 21 14 26 5 2 6 2 14 2 10-1 12-2 25-10 11-7 17-9 27-9 6 0 10 0 17 3 11 4 18 8 32 20 16 13 27 19 45 25 16 6 25 7 44 7 14 0 20 0 29-2l12-2c0 1-8 8-18 15-9 6-9 6-6 6 6 2 30 1 39-1 24-4 44-13 60-28l7-7v7c1 11 4 18 10 25l10 6 61 1 56-1 4-2c5-3 10-11 13-19 1-3 2-5 3-4 8 3 16 2 24-2l4-3 5 7c5 6 14 14 21 17 17 8 41 6 58-5 8-4 18-14 22-20l4-5 3 3c3 5 11 11 18 13 13 3 24-1 47-18a220 220 0 0 1 135-51c28-1 36-3 42-10 4-6 6-10 5-22 0-9 0-11-2-16-3-6-7-10-13-13-5-2-7-2-28-2-22 0-27 0-54 5h-4l7-7c7-7 7-7 13-7 16-2 27-6 32-11 2-3 2-4 2-10 0-7-1-11-5-15l-2-2 2-2c5-6 6-16 1-23-5-9-12-10-36-8l-8 1-4-4-8-5-4-2 16-1 21-1c7-1 16-6 19-10 8-10 5-32-5-40-7-6-1-6-114-6H610l-5 2-8 6-2 4-3-4c-5-9-13-15-22-15h-70l-1 9-1 8-2-3c-9-11-22-16-46-16l-22 2m9 5c-9 1-15 4-17 7-2 4-3 15-3 30v14h-22l-25 2c-6 2-10 5-13 10-2 4-2 5-2 31v29c-1 2-2 2-11 2h-11l4-13 3-14c0-2-2 1-11 13-9 14-9 14-13 14l-7-2c-2-2-4-2-13-2h-11l5-6c9-10 20-25 22-29v-9c-1-3-2-5-4-6-3-1-53-2-59 0-10 2-16 11-13 19 2 7 10 14 17 14 3 0 3 0-3 10l-5 7h-12c-12 0-13 0-16 3-6 5-7 19 0 25 2 2 2 2 16 2l15 1c0 2-8 17-11 20l-2 4-4-3c-12-7-24-3-28 9-2 8-2 10 11 32 8 14 7 13 18 7 15-9 27-20 39-35 5-6 8-10 11-11l8-5 5-3 8-7 7-6 5 13 4 11 4-17 4-17 13-8 14-9-3 13a229 229 0 0 1-89 149l-4 3h8c31-3 62-21 81-48 9-12 9-14 8-21-3-15 3-27 16-32l5-2 4-11c7-19 11-34 11-36l-4-1c-8-3-14-10-15-21s5-18 17-22c5-1 6-2 6-5 1-5 3-9 7-12 10-10 28-7 35 6l2 4h25V69h-13V55h13c14-1 18-3 21-8s3-14 0-19c-2-4-7-8-12-9s-29-2-36-1m71 6c-4 11-6 20-7 33v12h-29v20l1 20h25v22c1 27 5 56 12 77l2 6-5 8c-5 9-11 24-13 31l-2 12c0 15 9 25 20 22 5-2 12-6 14-9l2-2 3 4 11 13c20 18 41 22 63 10 19-9 31-29 31-49 0-31-24-55-49-51-13 2-24 10-29 21-3 6-3 7-3 17 0 9 0 11 2 16 6 12 17 19 30 19 7 0 11-1 15-6 4-3 5-7 5-13 0-14-13-22-25-17-2 0-3-2-1-4 3-2 12-2 17-1 9 3 13 9 13 20 0 12-7 23-15 25-7 2-16 1-23-3-10-4-16-11-21-20-3-7-3-8-4-17 0-15 2-21 20-49l11-17c4-10-3-23-12-25-5 0-14 3-21 9-3 3-5 4-6 3-2-6-3-18-4-34v-18h15c17-1 22-2 26-8 5-7 5-18 0-24-4-6-9-7-26-7h-15v-4a267 267 0 0 1 8-47l-17-1h-17l-2 6m49-4-7 6c-8 10-5 25 8 31 5 3 15 2 20-2s8-8 9-13c2-16-15-29-30-22m-312 1a9682 9682 0 0 1-33 79l9 1h10l1-5c2-6 7-10 13-12l31-2c29 0 33 0 39 5 2 2 3 3 12 3 11 0 15-2 20-8 2-3 2-4 2-9 0-8-2-13-7-17l-3-2-34-1-34-1 2-5c1-4 2-5 3-5 4 0 11-4 12-6 3-5 0-11-5-15-3-2-4-2-20-2-17 0-17 0-18 2m-67 0a356 356 0 0 0-6 27l-2 8h-12c-11 0-13 0-17 2-13 7-12 24 2 31l10 2 6 1-16 46c-5 13-10 23-18 34-10 13-13 20-14 27 0 5 0 7 2 10 11 19 26 10 45-27a451 451 0 0 0 17-37c1-1 21-2 21 0l-9 26c-1 1-2 2-6 1-22-2-30 18-15 35 7 7 20 13 33 15l4 1-3-6c-6-10-5-19 1-25 2-3 6-6 9-7 3-2 5-3 7-7l3-4c-8-5-11-9-13-16-3-13 5-24 20-27 6-1 9-4 9-9l-2-8c-3-5-7-6-27-6l-18-1 2-8 3-8h7l8-1 8-16 8-18h-11c-12 0-12 0-10-6a261 261 0 0 0 1-6c1-2 2-3 4-3l7-2c7-3 9-9 5-15l-3-4h-20l-20 1M80 36 67 47l16 21c18 23 18 23 28 22 8-1 12-6 13-17v-6l-16-20-16-21-12 10m528-5c-12 6-15 19-7 30 6 8 5 7 54 8l44 1 2 5c2 8 2 8-6 12l-15 10-8 7-21 2c-16 1-21 2-23 4-8 5-8 19 1 24l3 2 28-2 27-3 5-6c6-6 18-14 26-17 19-7 41-4 53 9l5 5 23-2 26-4c3-1 5-6 5-10 0-3-3-10-6-12-2-1-5-1-20 1l-19 1-6-5c-7-6-17-11-26-13-6-2-6-2-6-6v-3h31c33 0 37 0 43-5 6-4 7-8 7-15-1-7-4-13-9-17l-4-3-101-1H613l-5 3m-20 29-6 6-3 3 3 3c7 7 8 17 3 28l-2 7 10 14 11 13h12l-2-3c-3-4-4-12-1-18 1-4 3-5 7-7 6-4 19-6 34-7h12l8-7 14-11 6-3h-40l-45-1c-7-2-12-6-15-12l-3-6c0-3-1-2-3 1m-3 5-4 5 3 2c4 5 5 8 5 16 0 5 0 8-2 13-3 5-3 6-2 8l11 13c9 10 9 11 13 11h4l-2-6c-2-4-2-6-1-11 3-12 13-16 47-19h10l5-5 10-9 6-4h-39l-42-1c-6-2-12-7-15-12l-2-5-5 4M124 88c-6 5-10 6-16 6-7 0-14-2-18-6-1-2-3-2-13-2H64l-7 18-8 18 14 1h14l-10 11-19 18c-13 12-21 19-22 22-1 6 5 10 21 11h10l-8 6c-19 13-33 27-37 36-4 11 2 24 13 27 5 2 9 1 22-7 15-9 20-10 32-11 20-1 35 5 55 22 17 15 26 20 38 26s23 9 38 10c44 2 81-20 102-63 5-9 11-24 11-26l-7 6c-15 15-34 27-51 31-5 2-11 2-19 2-11 0-11 0-17 4l-7 3-5-6-7-7c-14-3-24-7-38-15l-15-7c-9-4-10-4-12-2l-8 4c-7 4-14 4-19 2-4-2-9-8-11-14l-2-4H88l14-14c14-14 20-22 20-28s-6-14-13-16c-2-1-1-2 13-16 16-16 20-23 20-30 0-4-1-7-7-10-6-4-7-4-11 0m285 12c-5 3-8 7-9 12-1 8-1 8-7 9-12 2-17 7-16 18 1 6 3 9 12 13 5 2 6 3 7 5 3 15 7 23 15 31 9 7 21 12 33 12 16 0 29-9 38-25 7-14 3-28-10-30-6-1-12 3-18 10-7 9-11 11-16 7l-2-5c0-3 0-3 6-3 5 0 6 0 8-4 4-6 12-10 18-10 5 0 12 3 15 6 2 1 2 1 3-2l1-9c0-7-1-10-8-13-3-2-5-2-22-2l-21-1-2-6-2-8c-4-7-16-9-23-5m320 11c-10 3-16 15-13 25 4 11 15 17 26 14 9-3 14-11 14-20 0-15-13-24-27-19m-151 4 7 26-11 1-10 1 13 9 14 9 4 17 5 16 4-12c3-9 4-12 5-11a910 910 0 0 1 31 22l-13-15-13-16 4-11 3-9h-22l-10-14c-9-14-12-18-11-13m5 14 3 13-10 1-9 1 12 8c12 7 13 8 14 12l4 16 3 13 3-12 5-12 26 18-15-17-7-8 4-9 3-9-10-1h-11l-8-13-10-13 3 12m-254 2-9 13h-21l4 11 3 9-4 8-4 9 4-3a362 362 0 0 1 6-6l3-2 4 11 4 11 4-15 4-15 13-9 12-9h-10c-9 0-10 0-10-2l6-23-9 12m492-8-22 3-21 2-1 3-7 10a47 47 0 0 1-37 13c-14 0-25-4-37-12l-6-4-27 3c-29 3-30 3-33 9-3 4-2 12 0 16l5 5c4 1 5 1 25-1l21-2 11 5a111 111 0 0 0 34 11l1 9 1 8-12 5c-42 18-69 41-72 61-1 9 5 18 16 21 12 3 24-1 37-12 21-20 49-36 77-45 17-6 28-8 54-9 32-2 43-4 48-11 3-4 4-16 2-22-1-5-7-10-12-11a262 262 0 0 0-95 8l-3-10 5-4c6-4 13-11 18-18l3-3 17-2 20-3c4-4 5-12 3-17-3-5-8-7-14-6m-529 50c-3 5-2 5 1 1 4-4 5-5 2-5l-3 4m368 7-18 3 1 1c2 0 11 9 12 12l1 5c0 2-1 2-6 2-6 0-17-5-28-12l-8-5-5 12 6 4c13 5 26 22 28 34l1 4 8-5 38-24 31-19-7-2c-11-1-20-4-27-9l-8-4-19 3m4 1-17 3 4 5c6 6 8 10 6 13 0 2-2 3-3 3-7 1-20-4-32-13l-6-4-3 5-2 4 6 4a60 60 0 0 1 28 36l11-6 35-22 26-16-7-2c-9-1-17-4-24-9l-6-4-16 3m-206 21c-7 4-20 4-27 1-2-1-2 1-2 30v32h-10v-64h-34v4c0 3 1 4 3 4 11 2 19 12 20 23 0 8-2 14-9 21-5 5-8 7-28 12-4 0-9 3-11 4-6 4-7 8-7 18 0 14 5 20 19 22l55 1c53-1 51 0 57-8 5-6 8-18 5-25s-12-12-21-12c-4 0-4 0-4-3s0-3-3-3c-4 0-12-4-17-9-7-9-8-18-2-28 4-6 10-12 16-13l6-2 1-3c0-5-1-5-7-2m-86 13c-7 4-10 10-11 17 0 5 0 7 2 11 8 15 30 15 37 0 4-9 2-19-4-25-6-5-17-7-24-3m85 0c-7 4-10 10-11 17 0 8 3 14 9 18 6 5 15 5 21 2 7-4 10-10 11-17 0-8-3-14-9-18-6-5-15-5-21-2" fill="#743742" fill-rule="evenodd" style="fill:url(#a)"/></svg>